PathFileType  4	(X/Y/Z) C:\Users\antoi\Documents\MyRepositories\mobilecap\ResultsAnalysis
DataRate	CameraRate	NumFrames	NumMarkers	Units	OrigDataRate	OrigDataStartFrame	OrigNumFrames
100.0	100.0	4	51	mm	100.0	1331	1774
Frame#	Time	r_knee			r_shank_antsup			r_ankle			r_calc			r_5meta			r_toe			L_knee			L_shank_antsup			L_ankle			L_calc			L_5meta			L_toe			r_sh2			r_sh3			r_sh4			L_sh2			L_sh3			r_thigh1			r_thigh2			r_thigh3			r_thigh4			r_thigh5			L_thigh1			L_thigh2			L_thigh3			L_thigh4			r.ASIS			r.PSIS			L.ASIS			L.PSIS			C7			R_Shoulder			L_Shoulder			R_Sternum			L_Sternum			R_humerus			R_elbow_med			R_elbow_lat			R_forearm			R_wrist_radius			R_wrist_ulna			L_humerus			L_elbow_med			L_elbow_lat			L_forearm			L_wrist_radius			L_wrist_ulna			R_HJC			L_HJC			R_HJC_reg			L_HJC_reg			
		X1	Y1	Z1	X2	Y2	Z2	X3	Y3	Z3	X4	Y4	Z4	X5	Y5	Z5	X6	Y6	Z6	X7	Y7	Z7	X8	Y8	Z8	X9	Y9	Z9	X10	Y10	Z10	X11	Y11	Z11	X12	Y12	Z12	X13	Y13	Z13	X14	Y14	Z14	X15	Y15	Z15	X16	Y16	Z16	X17	Y17	Z17	X18	Y18	Z18	X19	Y19	Z19	X20	Y20	Z20	X21	Y21	Z21	X22	Y22	Z22	X23	Y23	Z23	X24	Y24	Z24	X25	Y25	Z25	X26	Y26	Z26	X27	Y27	Z27	X28	Y28	Z28	X29	Y29	Z29	X30	Y30	Z30	X31	Y31	Z31	X32	Y32	Z32	X33	Y33	Z33	X34	Y34	Z34	X35	Y35	Z35	X36	Y36	Z36	X37	Y37	Z37	X38	Y38	Z38	X39	Y39	Z39	X40	Y40	Z40	X41	Y41	Z41	X42	Y42	Z42	X43	Y43	Z43	X44	Y44	Z44	X45	Y45	Z45	X46	Y46	Z46	X47	Y47	Z47	X48	Y48	Z48	X49	Y49	Z49	X50	Y50	Z50	X51	Y51	Z51	

1331	13.30000000	-296.24532	490.60236	-412.91717	-227.10173	411.54925	-422.16454	-299.28947	89.71374	-430.28157	-360.93279	56.00024	-476.77505	-174.51807	48.68905	-403.39910	-147.68546	82.28300	-457.27948	-305.89378	488.44985	-806.04762	-230.95967	420.97747	-790.58367	-290.99120	94.76066	-779.16482	-359.75488	50.16412	-728.67472	-182.44655	44.70469	-813.06557	-138.08749	75.69427	-760.03300	-233.31815	297.64328	-424.66061	-291.17376	410.66160	-381.40573	-300.92215	297.57372	-378.50738	-311.08711	431.74453	-832.08896	-313.60665	309.89764	-835.74523	-565.54545	556.61091	-426.87717	-457.75032	562.21526	-430.22665	-429.81562	515.55414	-386.29294	-560.85645	448.78653	-389.56432	-444.39350	459.12520	-397.41764	-538.05659	465.36067	-836.08243	-407.04269	576.34656	-779.84259	-545.85653	562.60872	-787.65392	-405.18642	474.87393	-819.20027	-623.24871	603.54729	-491.11615	-827.49947	558.59689	-562.92397	-638.71418	597.44749	-740.08179	-830.37465	557.74655	-652.79845	-775.51431	1039.49433	-601.49339	-693.47520	1000.07519	-437.13442	-698.18962	1002.12793	-760.84334	-650.99092	957.94949	-580.99393	-654.19000	960.39092	-626.32592	-673.67322	868.01151	-377.24803	-761.12316	673.97719	-426.45439	-760.18758	679.92561	-349.87412	-664.93754	698.44595	-349.03975	-519.09767	738.25409	-415.51155	-516.11075	693.71263	-393.62405	-696.63693	861.03003	-826.64354	-779.46917	674.87914	-762.44478	-770.38877	683.95346	-849.94512	-695.37460	703.88152	-853.91316	-543.69823	752.68963	-796.05824	-540.65991	706.96911	-820.04205	-669.57321	491.86381	-510.85805	-677.92151	489.27575	-700.21858	-666.88282	505.05866	-523.85567	-672.14842	503.50129	-688.44773	
1332	13.31000000	-296.12971	490.60445	-413.09256	-227.16396	411.53993	-422.38493	-299.34698	89.72780	-430.31866	-360.95604	56.02564	-476.77130	-174.56216	48.76437	-403.40762	-147.71088	82.33542	-457.30687	-305.96161	488.51971	-805.69102	-231.21162	420.93825	-790.45230	-290.96574	94.79896	-779.15004	-359.74664	50.15400	-728.68226	-182.44330	44.72304	-813.06683	-138.10000	75.58916	-759.74326	-233.47069	297.61043	-424.65650	-291.32970	410.65364	-381.68609	-300.99319	297.54010	-378.66950	-311.14055	431.62267	-831.33937	-313.67190	310.03921	-835.47511	-565.52795	556.56844	-426.85786	-457.79742	562.17349	-430.24118	-429.77863	515.57133	-386.39517	-560.74523	448.72004	-389.62854	-444.38288	459.09905	-397.48406	-537.98576	465.21203	-836.11322	-407.05937	576.20701	-779.34069	-546.02184	562.37572	-787.57839	-405.16696	474.84846	-818.80763	-624.02895	603.76672	-491.02969	-828.24201	557.85878	-562.78756	-639.58647	597.22106	-739.73839	-831.19656	557.04929	-652.49621	-780.56284	1038.85467	-601.55483	-698.10957	999.94981	-437.17623	-703.12953	1002.17007	-761.10629	-654.90001	958.12856	-581.71103	-658.45752	960.88543	-626.47853	-677.45363	868.20414	-377.54137	-763.03515	673.55483	-426.57640	-762.32898	679.53581	-350.05116	-667.10954	698.36486	-349.18216	-521.44621	738.60479	-416.07445	-518.10336	693.94205	-394.46658	-700.52268	861.33755	-827.07715	-781.92910	674.18028	-763.45235	-772.59629	683.68789	-850.95724	-697.74838	703.92415	-854.20486	-546.43266	753.40006	-795.88565	-543.09845	707.79242	-820.14690	-670.05562	491.84370	-510.53963	-678.41848	488.98944	-699.89611	-667.20597	504.89526	-523.74085	-672.62148	503.41112	-688.16997	
1333	13.32000000	-295.96922	490.71533	-413.41427	-227.20196	411.54661	-422.53353	-299.31319	89.78105	-430.27074	-360.98496	56.04498	-476.74924	-174.55174	48.85926	-403.44399	-147.71191	82.34412	-457.32185	-305.95604	488.57511	-805.36439	-231.09354	420.96583	-789.87412	-290.91925	94.83650	-779.14551	-359.73796	50.14871	-728.67406	-182.42443	44.74868	-813.08489	-138.09230	75.49289	-759.53278	-233.51883	297.61042	-424.74687	-291.49179	410.72538	-381.96543	-301.11723	297.47446	-378.96818	-311.19878	431.59847	-830.70397	-313.71924	310.19404	-835.24245	-565.42992	556.57914	-426.88828	-457.73766	562.18390	-430.35541	-429.65761	515.62087	-386.62151	-560.57904	448.54195	-389.74703	-444.34482	459.12609	-397.49486	-537.86361	464.98542	-836.10429	-406.74918	575.81888	-778.78875	-546.13359	562.13305	-787.60395	-405.13597	474.75579	-818.39298	-624.75267	603.94500	-491.03705	-829.02078	557.23705	-562.45967	-640.34885	597.18752	-739.72624	-832.07372	556.43768	-652.19627	-785.39461	1038.16734	-601.52883	-702.71353	999.70302	-437.21922	-707.93319	1002.14634	-761.30330	-658.78655	958.36266	-582.23334	-662.58940	961.19544	-626.58138	-681.00339	868.33579	-377.84526	-765.03721	673.16262	-426.69415	-764.15836	679.09708	-350.11993	-669.02049	698.29860	-349.35435	-523.41415	738.98309	-416.72644	-520.06985	694.47286	-394.89803	-704.10335	861.55308	-827.41783	-784.09698	673.04528	-764.74676	-774.50510	683.28714	-851.98973	-699.74276	703.89863	-854.85258	-548.98350	754.05219	-795.76271	-545.21646	708.52991	-820.14389	-670.46842	491.83760	-510.37778	-678.98969	488.82939	-699.72480	-667.53758	504.80109	-523.72414	-673.13109	503.33605	-688.13976	
1334	13.33000000	-295.89254	490.58149	-413.82254	-227.21032	411.57101	-422.62675	-299.25559	89.82770	-430.20838	-360.96021	56.03421	-476.74975	-174.56155	48.59577	-403.32956	-147.68949	82.31878	-457.30868	-305.91921	488.56318	-804.89864	-230.89152	421.02220	-789.21928	-290.85831	94.87175	-779.14084	-359.71879	50.15146	-728.65459	-182.39619	44.77198	-813.11848	-138.04694	75.42317	-759.47271	-233.43448	297.66311	-424.90742	-291.60015	410.88073	-382.14960	-301.16488	297.49016	-379.33568	-311.26000	431.73585	-830.30726	-313.73948	310.30372	-835.01940	-565.34246	556.58110	-426.90999	-457.67432	562.20424	-430.59109	-429.52571	515.66627	-386.95054	-560.44359	448.41866	-389.80046	-444.26307	459.24305	-397.43818	-537.69058	464.73778	-836.02784	-406.58416	575.60968	-778.44310	-546.24697	561.98090	-787.61502	-405.08319	474.69105	-818.01298	-625.52227	604.15630	-491.01251	-829.73016	556.67495	-562.19415	-641.00801	597.24520	-739.84159	-832.87078	555.75793	-652.02914	-789.98565	1037.41438	-601.46912	-706.97314	999.51489	-437.32812	-712.56863	1002.08392	-761.32038	-662.69064	958.68028	-582.32924	-666.53390	961.40574	-626.66191	-684.17731	868.57006	-377.80780	-766.98508	672.85982	-426.75001	-765.76161	678.54924	-350.19598	-670.74217	698.23874	-349.61897	-525.17554	739.41973	-417.25631	-521.76311	695.04087	-395.25858	-707.44961	861.61805	-827.72294	-786.04160	672.06314	-766.03489	-776.20820	682.85789	-852.95510	-701.48943	703.96957	-855.62024	-551.28749	754.68686	-795.75652	-547.08177	709.24248	-820.01589	-670.83795	491.87963	-510.26804	-679.44184	488.72168	-699.60878	-667.88116	504.87614	-523.57567	-673.63167	503.19700	-688.07438	
